<svg width="60" height="60" viewBox="0 0 60 60" fill="none" xmlns="http://www.w3.org/2000/svg">
<path d="M30 60C46.5685 60 60 46.5685 60 30C60 13.4315 46.5685 0 30 0C13.4315 0 0 13.4315 0 30C0 46.5685 13.4315 60 30 60Z" fill="#A7D544"/>
<path d="M49.2485 7.00098C53.6135 12.2116 56.2498 18.9204 56.2498 26.2497C56.2498 42.8173 42.8173 56.2498 26.2497 56.2498C18.9204 56.2498 12.2116 53.6135 7.00098 49.2485C12.5041 55.8185 20.7597 59.9998 29.9998 59.9998C46.5673 59.9998 59.9998 46.5673 59.9998 29.9997C59.9998 20.7597 55.8185 12.5041 49.2485 7.00098Z" fill="#88BB1A"/>
<path d="M47.0475 33.75H12.9544C12.0131 33.75 11.25 34.4494 11.25 35.3137C11.25 44.7919 19.6613 52.5 30 52.5C40.3387 52.5 48.75 44.7919 48.75 35.3137C48.75 34.4494 47.9887 33.75 47.0475 33.75Z" fill="#5BAA1D"/>
<path d="M48.6263 36.8737C48.6806 36.3581 48.75 35.8444 48.75 35.3137C48.75 34.4494 47.9887 33.75 47.0475 33.75H12.9544C12.0131 33.75 11.25 34.4494 11.25 35.3137C11.25 35.8444 11.3212 36.3581 11.3756 36.8737H48.6263Z" fill="#187E1B"/>
<path d="M49.6875 30C51.2408 30 52.5 28.7408 52.5 27.1875C52.5 25.6342 51.2408 24.375 49.6875 24.375C48.1342 24.375 46.875 25.6342 46.875 27.1875C46.875 28.7408 48.1342 30 49.6875 30Z" fill="#AFE881"/>
<path d="M10.3125 30C11.8658 30 13.125 28.7408 13.125 27.1875C13.125 25.6342 11.8658 24.375 10.3125 24.375C8.7592 24.375 7.5 25.6342 7.5 27.1875C7.5 28.7408 8.7592 30 10.3125 30Z" fill="#AFE881"/>
<path d="M45.1272 26.25C44.9322 26.25 44.7372 26.2012 44.5591 26.1037L41.2497 24.2887L37.9384 26.1037C37.5259 26.3306 37.0272 26.2912 36.6484 26.0062C36.2716 25.7194 36.0841 25.2337 36.1628 24.7556L36.7947 20.9175L34.1172 18.2006C33.7834 17.8594 33.6616 17.3512 33.8059 16.8862C33.9503 16.4231 34.3328 16.0856 34.7941 16.0162L38.4953 15.4556L40.1491 11.9625C40.3572 11.5256 40.7828 11.25 41.2497 11.25C41.7147 11.25 42.1403 11.5256 42.3466 11.9606L44.0022 15.4537L47.7035 16.0144C48.1628 16.0838 48.5453 16.4212 48.6897 16.8844C48.8341 17.3494 48.7141 17.8594 48.3766 18.1988L45.7028 20.9156L46.3347 24.7537C46.4135 25.2337 46.2222 25.7175 45.8491 26.0044C45.6353 26.1675 45.3803 26.25 45.1272 26.25Z" fill="#529F16"/>
<path d="M22.6273 26.25C22.4323 26.25 22.2373 26.2012 22.0591 26.1037L18.7498 24.2887L15.4385 26.1037C15.026 26.3306 14.5273 26.2912 14.1485 26.0062C13.7716 25.7194 13.5841 25.2337 13.6629 24.7556L14.2929 20.9175L11.6191 18.2006C11.2854 17.8594 11.1635 17.3494 11.3079 16.8844C11.4523 16.4212 11.8348 16.0838 12.2979 16.0144L15.9973 15.4537L17.651 11.9606C17.8573 11.5256 18.2829 11.25 18.7498 11.25C19.2148 11.25 19.6404 11.5256 19.8466 11.9606L21.5023 15.4537L25.2016 16.0144C25.6629 16.0838 26.0454 16.4212 26.1898 16.8844C26.3341 17.3494 26.2123 17.8594 25.8766 18.1988L23.2029 20.9156L23.8348 24.7537C23.9135 25.2337 23.7241 25.7175 23.3491 26.0044C23.1354 26.1675 22.8823 26.25 22.6273 26.25Z" fill="#529F16"/>
<path d="M14.2965 20.9155L13.6665 24.7537C13.6177 25.0518 13.7002 25.333 13.8371 25.5862L14.2965 22.7905V20.9155Z" fill="#187E1B"/>
<path d="M11.6491 18.2306C11.8291 18.0563 12.0466 17.9288 12.2979 17.8913L15.9973 17.3306L17.651 13.8375C17.8573 13.4006 18.2829 13.125 18.7498 13.125C19.2148 13.125 19.6404 13.4006 19.8466 13.8356L21.5023 17.3288L25.2016 17.8894C25.4529 17.9269 25.6685 18.0544 25.8466 18.2288L25.8766 18.1988C26.2123 17.8575 26.3341 17.3494 26.1898 16.8844C26.0454 16.4213 25.6629 16.0838 25.2016 16.0144L21.5023 15.4538L19.8466 11.9606C19.6404 11.5256 19.2148 11.25 18.7498 11.25C18.2829 11.25 17.8573 11.5256 17.651 11.9606L15.9973 15.4538L12.2979 16.0163C11.8348 16.0856 11.4523 16.4231 11.3079 16.8844C11.1635 17.3494 11.2854 17.8594 11.6191 18.1988L11.6491 18.2306Z" fill="#187E1B"/>
<path d="M23.2031 22.7905L23.6625 25.5843C23.8013 25.3312 23.8838 25.0518 23.835 24.7537L23.2031 20.9155V22.7905Z" fill="#187E1B"/>
<path d="M36.7964 20.9155L36.1645 24.7537C36.1158 25.0518 36.1983 25.333 36.3351 25.5862L36.7964 22.7905V20.9155Z" fill="#187E1B"/>
<path d="M34.1491 18.2306C34.3291 18.0563 34.5466 17.9269 34.7979 17.8894L38.4991 17.3288L40.1529 13.8356C40.3573 13.4006 40.7829 13.125 41.2498 13.125C41.7148 13.125 42.1404 13.4006 42.3466 13.8356L44.0023 17.3288L47.7035 17.8894C47.9529 17.9269 48.1685 18.0544 48.3485 18.2288L48.3785 18.1988C48.716 17.8575 48.836 17.3494 48.6916 16.8844C48.5473 16.4213 48.1648 16.0838 47.7054 16.0144L44.0041 15.4538L42.3485 11.9606C42.1404 11.5256 41.7148 11.25 41.2498 11.25C40.7829 11.25 40.3573 11.5256 40.151 11.9606L38.4973 15.4538L34.796 16.0144C34.3348 16.0838 33.9523 16.4213 33.8079 16.8844C33.6635 17.3494 33.7854 17.8594 34.1191 18.1988L34.1491 18.2306Z" fill="#187E1B"/>
<path d="M45.7031 22.7905L46.1625 25.5843C46.2994 25.3312 46.3838 25.0518 46.335 24.7537L45.7031 20.9155V22.7905Z" fill="#187E1B"/>
</svg>
