<svg width="60" height="60" viewBox="0 0 60 60" fill="none" xmlns="http://www.w3.org/2000/svg">
<path d="M30 60C46.5685 60 60 46.5685 60 30C60 13.4315 46.5685 0 30 0C13.4315 0 0 13.4315 0 30C0 46.5685 13.4315 60 30 60Z" fill="#FCD063"/>
<path d="M49.249 7.00098C53.614 12.2116 56.2502 18.9204 56.2502 26.2497C56.2502 42.8173 42.8177 56.2498 26.2502 56.2498C18.9208 56.2498 12.2121 53.6135 7.00146 49.2485C12.5046 55.8185 20.7602 59.9998 30.0002 59.9998C46.5677 59.9998 60.0002 46.5673 60.0002 29.9997C60.0002 20.7597 55.819 12.5041 49.249 7.00098Z" fill="#F7B84E"/>
<path d="M40.2281 35.625H19.7719C19.2075 35.625 18.75 36.045 18.75 36.5625C18.75 42.2494 23.7956 46.875 30 46.875C36.2044 46.875 41.25 42.2494 41.25 36.5625C41.25 36.045 40.7925 35.625 40.2281 35.625Z" fill="#C98E3F"/>
<path d="M41.175 37.5C41.2087 37.1888 41.25 36.8813 41.25 36.5625C41.25 36.045 40.7925 35.625 40.2281 35.625H19.7719C19.2075 35.625 18.75 36.045 18.75 36.5625C18.75 36.8813 18.7912 37.1888 18.825 37.5H41.175Z" fill="#AB7934"/>
<path d="M18.75 30C20.8211 30 22.5 28.3211 22.5 26.25C22.5 24.1789 20.8211 22.5 18.75 22.5C16.6789 22.5 15 24.1789 15 26.25C15 28.3211 16.6789 30 18.75 30Z" fill="#C98E3F"/>
<path d="M18.75 24.375C20.4956 24.375 21.9488 25.5731 22.3669 27.1875C22.4456 26.8856 22.5 26.5763 22.5 26.25C22.5 24.18 20.82 22.5 18.75 22.5C16.68 22.5 15 24.18 15 26.25C15 26.5763 15.0544 26.8856 15.1331 27.1875C15.5513 25.5731 17.0044 24.375 18.75 24.375Z" fill="#AB7934"/>
<path d="M41.25 30C43.3211 30 45 28.3211 45 26.25C45 24.1789 43.3211 22.5 41.25 22.5C39.1789 22.5 37.5 24.1789 37.5 26.25C37.5 28.3211 39.1789 30 41.25 30Z" fill="#C98E3F"/>
<path d="M47.8125 35.625C49.3658 35.625 50.625 34.3658 50.625 32.8125C50.625 31.2592 49.3658 30 47.8125 30C46.2592 30 45 31.2592 45 32.8125C45 34.3658 46.2592 35.625 47.8125 35.625Z" fill="#F7B84E"/>
<path d="M12.1875 35.625C13.7408 35.625 15 34.3658 15 32.8125C15 31.2592 13.7408 30 12.1875 30C10.6342 30 9.375 31.2592 9.375 32.8125C9.375 34.3658 10.6342 35.625 12.1875 35.625Z" fill="#F7B84E"/>
<path d="M41.25 24.375C42.9956 24.375 44.4488 25.5731 44.8688 27.1875C44.9456 26.8856 45 26.5763 45 26.25C45 24.18 43.32 22.5 41.25 22.5C39.18 22.5 37.5 24.18 37.5 26.25C37.5 26.5763 37.5544 26.8856 37.6312 27.1875C38.0512 25.5731 39.5044 24.375 41.25 24.375Z" fill="#AB7934"/>
</svg>
