<svg width="60" height="60" viewBox="0 0 60 60" fill="none" xmlns="http://www.w3.org/2000/svg">
<path d="M30 60C46.5685 60 60 46.5685 60 30C60 13.4315 46.5685 0 30 0C13.4315 0 0 13.4315 0 30C0 46.5685 13.4315 60 30 60Z" fill="#FC6363"/>
<path d="M49.249 7.00098C53.614 12.2116 56.2502 18.9204 56.2502 26.2497C56.2502 42.8173 42.8177 56.2498 26.2502 56.2498C18.9208 56.2498 12.2121 53.6135 7.00146 49.2485C12.5046 55.8185 20.7602 59.9998 30.0002 59.9998C46.5677 59.9998 60.0002 46.5673 60.0002 29.9997C60.0002 20.7597 55.819 12.5041 49.249 7.00098Z" fill="#E84242"/>
<path d="M38.1769 43.1254C37.6369 43.1254 37.0913 42.9942 36.5944 42.7186C33.0807 40.7742 26.9157 40.7742 23.4019 42.7186C21.9525 43.523 20.0644 43.0954 19.1888 41.7642C18.3132 40.4329 18.78 38.7023 20.2294 37.8979C25.7063 34.8661 34.2882 34.8661 39.765 37.8979C41.2144 38.7023 41.6813 40.4329 40.8057 41.7642C40.2319 42.6398 39.2175 43.1254 38.1769 43.1254Z" fill="#BD1F1F"/>
<path d="M18.75 31.875C20.8211 31.875 22.5 30.1961 22.5 28.125C22.5 26.0539 20.8211 24.375 18.75 24.375C16.6789 24.375 15 26.0539 15 28.125C15 30.1961 16.6789 31.875 18.75 31.875Z" fill="#BD1F1F"/>
<path d="M41.25 31.875C43.3211 31.875 45 30.1961 45 28.125C45 26.0539 43.3211 24.375 41.25 24.375C39.1789 24.375 37.5 26.0539 37.5 28.125C37.5 30.1961 39.1789 31.875 41.25 31.875Z" fill="#BD1F1F"/>
<path d="M20.2313 39.7749C25.7082 36.743 34.2901 36.743 39.7669 39.7749C40.4044 40.1293 40.8394 40.6655 41.0663 41.2655C41.5538 40.028 41.0401 38.6068 39.7669 37.8999C34.2901 34.868 25.7082 34.868 20.2313 37.8999C18.9563 38.6068 18.4444 40.028 18.9319 41.2655C19.1588 40.6655 19.5938 40.1293 20.2313 39.7749Z" fill="#982020"/>
<path d="M18.75 26.25C20.4956 26.25 21.9488 27.4481 22.3669 29.0625C22.4456 28.7606 22.5 28.4513 22.5 28.125C22.5 26.055 20.82 24.375 18.75 24.375C16.68 24.375 15 26.055 15 28.125C15 28.4513 15.0544 28.7606 15.1331 29.0625C15.5513 27.4481 17.0044 26.25 18.75 26.25Z" fill="#982020"/>
<path d="M41.25 26.25C42.9956 26.25 44.4488 27.4481 44.8688 29.0625C44.9456 28.7606 45 28.4513 45 28.125C45 26.055 43.32 24.375 41.25 24.375C39.18 24.375 37.5 26.055 37.5 28.125C37.5 28.4513 37.5544 28.7606 37.6312 29.0625C38.0512 27.4481 39.5044 26.25 41.25 26.25Z" fill="#982020"/>
<path d="M47.8125 37.5C49.3658 37.5 50.625 36.2408 50.625 34.6875C50.625 33.1342 49.3658 31.875 47.8125 31.875C46.2592 31.875 45 33.1342 45 34.6875C45 36.2408 46.2592 37.5 47.8125 37.5Z" fill="#FF9F9F"/>
<path d="M12.1875 37.5C13.7408 37.5 15 36.2408 15 34.6875C15 33.1342 13.7408 31.875 12.1875 31.875C10.6342 31.875 9.375 33.1342 9.375 34.6875C9.375 36.2408 10.6342 37.5 12.1875 37.5Z" fill="#FF9F9F"/>
</svg>
